<?xml version="1.0" encoding="utf-8"?>
<!-- Generator: Adobe Illustrator 13.0.0, SVG Export Plug-In . SVG Version: 6.00 Build 14948)  -->
<!DOCTYPE svg PUBLIC "-//W3C//DTD SVG 1.1//EN" "http://www.w3.org/Graphics/SVG/1.1/DTD/svg11.dtd">
<svg version="1.1" id="Layer_1" xmlns="http://www.w3.org/2000/svg" xmlns:xlink="http://www.w3.org/1999/xlink" x="0px" y="0px"
	 width="512px" height="512px" viewBox="0 0 512 512" enable-background="new 0 0 512 512" xml:space="preserve">
<g>
	<g>
		<path fill="#79C4CC" d="M273.507,26.659L286.545,40l-11.608,11.879C379.274,61.438,461,149.167,461,256
			c0,113.217-91.783,205-205,205c-113.218,0-205-91.783-205-205c0-106.438,81.124-193.902,184.91-204v28L275,40L235.91,0v26.885
			C118.294,37.064,26,135.745,26,256c0,127.025,102.975,230,230,230s230-102.975,230-230C486,134.864,392.354,35.604,273.507,26.659
			z"/>
	</g>
</g>
<g>
	<g>
		<path fill="#79C4CC" d="M285.946,274.125C289.153,268.838,291,262.635,291,256c0-14.924-9.346-27.659-22.5-32.692V113.375h-25
			v109.933C230.345,228.341,221,241.075,221,256c0,19.329,15.67,35,35,35c3.555,0,6.984-0.534,10.217-1.52l48.088,62.396
			l19.802-15.261L285.946,274.125z M256,266c-5.522,0-10-4.477-10-10c0-5.522,4.478-10,10-10c5.523,0,10,4.478,10,10
			C266,261.523,261.523,266,256,266z"/>
	</g>
</g>
</svg>
