<?xml version="1.0" encoding="utf-8"?>
<!-- Generator: Adobe Illustrator 16.0.0, SVG Export Plug-In . SVG Version: 6.00 Build 0)  -->
<!DOCTYPE svg PUBLIC "-//W3C//DTD SVG 1.1//EN" "http://www.w3.org/Graphics/SVG/1.1/DTD/svg11.dtd">
<svg version="1.1" id="Layer_2" xmlns="http://www.w3.org/2000/svg" xmlns:xlink="http://www.w3.org/1999/xlink" x="0px" y="0px"
	 width="512px" height="512px" viewBox="0 0 512 512" enable-background="new 0 0 512 512" xml:space="preserve">
<g>
	<path fill="#79C4CC" d="M191.198,243.5C197.042,213.029,223.825,190,256,190c32.176,0,58.959,23.029,64.803,53.5H486.66
		C480.167,121.735,379.384,25,256,25C132.617,25,31.833,121.735,25.339,243.5H191.198z"/>
	<path fill="#79C4CC" d="M320.803,268.5C314.959,298.972,288.176,322,256,322c-32.175,0-58.958-23.028-64.802-53.5H25.339
		C31.833,390.265,132.617,487,256,487c123.384,0,224.167-96.735,230.66-218.5H320.803z"/>
</g>
</svg>
