<?xml version="1.0" encoding="utf-8"?>
<!-- Generator: Adobe Illustrator 16.0.0, SVG Export Plug-In . SVG Version: 6.00 Build 0)  -->
<!DOCTYPE svg PUBLIC "-//W3C//DTD SVG 1.1//EN" "http://www.w3.org/Graphics/SVG/1.1/DTD/svg11.dtd">
<svg version="1.1" id="Layer_2" xmlns="http://www.w3.org/2000/svg" xmlns:xlink="http://www.w3.org/1999/xlink" x="0px" y="0px"
	 width="512px" height="512px" viewBox="0 0 512 512" enable-background="new 0 0 512 512" xml:space="preserve">
<path display="none" fill="#FFFFFF" d="M357.657,117.526c0,95.759-45.553,173.385-101.744,173.385
	c-56.191,0-101.743-77.626-101.743-173.385c0-12.815,2.364-37.331,2.364-37.331l198.739,0
	C355.273,80.195,357.657,104.656,357.657,117.526z"/>
<polyline display="none" fill="#FFFFFF" points="256,316.8 207.166,450 301.833,450 256,316.8 "/>
<g>
	<path fill="none" d="M281.488,142.333c-2.979-4.028-6.567-7.006-10.766-8.936c-4.201-1.928-8.863-2.893-13.99-2.893
		c-5.908,0-11.084,1.185-15.527,3.552c-4.444,2.369-8.143,5.713-11.096,10.034c-2.955,4.321-5.176,9.51-6.665,15.564
		c-1.49,6.055-2.234,12.744-2.234,20.068c0,8.496,0.806,15.846,2.417,22.046c1.611,6.202,3.906,11.305,6.885,15.308
		c2.978,4.004,6.566,6.971,10.767,8.899c4.199,1.928,8.862,2.893,13.989,2.893c5.957,0,11.144-1.185,15.564-3.552
		c4.418-2.368,8.117-5.713,11.096-10.034s5.201-9.496,6.666-15.527c1.465-6.03,2.197-12.708,2.197-20.032
		c0-8.496-0.807-15.844-2.418-22.046C286.762,151.478,284.467,146.362,281.488,142.333z M234.138,183.825
		c-0.025-1.513-0.037-3.027-0.037-4.541c0-6.2,0.513-11.657,1.538-16.37c1.025-4.711,2.49-8.667,4.395-11.865
		c1.904-3.197,4.211-5.603,6.921-7.214s5.724-2.417,9.045-2.417c2.49,0,4.736,0.416,6.738,1.245c2.002,0.831,3.783,1.99,5.348,3.479
		c1.562,1.49,2.904,3.259,4.027,5.31s2.051,4.321,2.783,6.812l-40.502,29.956C234.248,186.804,234.162,185.339,234.138,183.825z
		 M276.361,196.533c-1.025,4.713-2.49,8.655-4.395,11.829c-1.904,3.175-4.211,5.566-6.921,7.178s-5.726,2.417-9.045,2.417
		c-2.589,0-4.896-0.427-6.921-1.282c-2.027-0.854-3.834-2.051-5.42-3.589c-1.587-1.538-2.942-3.38-4.065-5.53
		c-1.124-2.148-2.051-4.492-2.783-7.031l40.503-30.103c0.146,1.563,0.279,3.162,0.402,4.797c0.121,1.637,0.184,3.285,0.184,4.944
		C277.9,186.365,277.387,191.821,276.361,196.533z"/>
	<path fill="none" d="M105.506,77.556c-13.919-13.616-26.879-16.306-34.586-14c-22,6.582-27.461,41.796-25.333,70
		c2.5,33.125,9.5,68.167,32,80.667c15.759,8.755,38.755,13.5,49.756,29c6.638,9.353,5.682,24.731,5.682,24.731
		s8.018-3.157,14.563,0.769c6.759,4.055,12,11,17.503,5.502c7.089-7.083,3.822-15.635,3.822-15.635s-19.975-30.788-28.617-69.184
		c-5.371-20.322-8.952-42.312-10.399-65.393C128.468,118.962,120.34,92.069,105.506,77.556z"/>
	<path fill="none" d="M441.08,63.555c-7.706-2.306-20.667,0.384-34.585,14c-16.177,15.826-24.374,46.355-24.611,47.25
		c-0.004,0.056-0.008,0.111-0.012,0.167c0,0.599-0.052,3.576-0.829,10.344c-1.648,17.502-4.533,34.297-8.493,50.126
		c-0.008,0.038-0.015,0.073-0.022,0.111c-8.114,40.168-29.439,73.036-29.439,73.036s-3.267,8.552,3.822,15.635
		c5.503,5.498,10.744-1.447,17.503-5.502c6.545-3.926,14.563-0.769,14.563-0.769s-0.956-15.379,5.682-24.731
		c11-15.5,33.997-20.245,49.756-29c22.5-12.5,29.5-47.542,32-80.667C468.542,105.351,463.08,70.137,441.08,63.555z"/>
	<path fill="#DBBD40" d="M463.08,45.555c-18.848-15.302-43.931-9.392-58.334,1.333c-15.333,11.418-23.089,29.306-23.089,29.306
		l-0.11,0.405c-0.844-11.864-1.859-22.293-1.859-22.293l-247.572,0c0,0-0.979,10.153-1.808,21.808
		c-0.552-1.242-8.287-18.23-23.053-29.227C92.851,36.163,67.768,30.253,48.92,45.555C6.254,80.195,19.717,170.282,37.312,202.846
		c21.275,39.375,55.394,39.283,67.086,48.375c18.682,14.526,6.189,44,6.189,44s12.983-16.788,38.999,4
		c21.246,16.975,37.939-13.102,36.701-17.921c13.093,14.697,27.877,25.377,43.751,30.988h-0.011c0,0-39.444,137.656-57.53,137.711
		c-41.429,0.125-38.086,25.722-38.086,25.722h243c0,0,0-25.722-37.914-25.722c-18.345,0-57.702-137.711-57.702-137.711h-0.01
		c16.022-5.664,30.934-16.487,44.117-31.396c-2.578,3.094,14.531,35.889,36.509,18.328c26.017-20.788,39-4,39-4
		s-12.493-29.474,6.188-44c11.693-9.093,45.812-9,67.087-48.375C492.283,170.282,505.746,80.195,463.08,45.555z M168.913,258.589
		c0,0,3.267,8.552-3.822,15.635c-5.503,5.498-10.744-1.447-17.503-5.502c-6.545-3.926-14.563-0.769-14.563-0.769
		s0.956-15.379-5.682-24.731c-11.001-15.5-33.998-20.245-49.756-29c-22.5-12.5-29.5-47.542-32-80.667
		c-2.128-28.204,3.333-63.418,25.333-70c7.707-2.306,20.667,0.384,34.586,14c14.834,14.514,22.962,41.407,24.392,46.457
		c1.447,23.081,5.028,45.07,10.399,65.393C148.938,227.801,168.913,258.589,168.913,258.589z M288.594,199.755
		c-1.465,6.031-3.688,11.206-6.666,15.527s-6.678,7.667-11.096,10.034c-4.42,2.368-9.607,3.552-15.564,3.552
		c-5.127,0-9.791-0.965-13.989-2.893c-4.2-1.928-7.789-4.895-10.767-8.899c-2.979-4.003-5.273-9.106-6.885-15.308
		c-1.611-6.2-2.417-13.55-2.417-22.046c0-7.324,0.744-14.013,2.234-20.068c1.489-6.054,3.71-11.243,6.665-15.564
		c2.954-4.321,6.652-7.665,11.096-10.034c4.442-2.368,9.619-3.552,15.527-3.552c5.127,0,9.789,0.965,13.99,2.893
		c4.198,1.93,7.787,4.907,10.766,8.936s5.273,9.144,6.885,15.344c1.611,6.202,2.418,13.55,2.418,22.046
		C290.791,187.048,290.059,193.726,288.594,199.755z M466.413,133.555c-2.5,33.125-9.5,68.167-32,80.667
		c-15.759,8.755-38.756,13.5-49.756,29c-6.638,9.353-5.682,24.731-5.682,24.731s-8.018-3.157-14.563,0.769
		c-6.759,4.055-12,11-17.503,5.502c-7.089-7.083-3.822-15.635-3.822-15.635s21.325-32.867,29.439-73.036
		c0.008-0.038,0.015-0.073,0.022-0.111c3.96-15.829,6.845-32.624,8.493-50.126c0.777-6.769,0.829-9.746,0.829-10.344
		c0.004-0.056,0.008-0.111,0.012-0.167c0.237-0.895,8.435-31.424,24.611-47.25c13.918-13.616,26.879-16.306,34.585-14
		C463.08,70.137,468.542,105.351,466.413,133.555z"/>
	<path fill="#DBBD40" d="M277.314,170.422l-40.503,30.103c0.732,2.54,1.659,4.883,2.783,7.031c1.123,2.149,2.478,3.992,4.065,5.53
		c1.586,1.538,3.393,2.735,5.42,3.589c2.025,0.855,4.333,1.282,6.921,1.282c3.32,0,6.335-0.806,9.045-2.417s5.017-4.003,6.921-7.178
		c1.904-3.173,3.369-7.116,4.395-11.829c1.025-4.711,1.539-10.168,1.539-16.37c0-1.659-0.063-3.307-0.184-4.944
		C277.594,173.584,277.461,171.985,277.314,170.422z"/>
	<path fill="#DBBD40" d="M272.113,151.452c-1.123-2.051-2.466-3.82-4.027-5.31c-1.564-1.489-3.346-2.648-5.348-3.479
		c-2.002-0.83-4.248-1.245-6.738-1.245c-3.321,0-6.335,0.806-9.045,2.417s-5.017,4.017-6.921,7.214
		c-1.904,3.199-3.369,7.154-4.395,11.865c-1.025,4.713-1.538,10.169-1.538,16.37c0,1.514,0.011,3.028,0.037,4.541
		c0.024,1.514,0.11,2.979,0.256,4.395l40.502-29.956C274.164,155.773,273.236,153.503,272.113,151.452z"/>
</g>
</svg>
