<?xml version="1.0" encoding="utf-8"?>
<!-- Generator: Adobe Illustrator 16.0.0, SVG Export Plug-In . SVG Version: 6.00 Build 0)  -->
<!DOCTYPE svg PUBLIC "-//W3C//DTD SVG 1.1//EN" "http://www.w3.org/Graphics/SVG/1.1/DTD/svg11.dtd">
<svg version="1.1" id="Layer_2" xmlns="http://www.w3.org/2000/svg" xmlns:xlink="http://www.w3.org/1999/xlink" x="0px" y="0px"
	 width="512px" height="512px" viewBox="0 0 512 512" enable-background="new 0 0 512 512" xml:space="preserve">
<path display="none" fill="#FFFFFF" d="M357.657,117.526c0,95.759-45.553,173.385-101.744,173.385
	c-56.191,0-101.743-77.626-101.743-173.385c0-12.815,2.364-37.331,2.364-37.331l198.739,0
	C355.273,80.195,357.657,104.656,357.657,117.526z"/>
<polyline display="none" fill="#FFFFFF" points="256,316.8 207.166,450 301.833,450 256,316.8 "/>
<g>
	<path fill="none" d="M105.506,77.556c-13.919-13.616-26.879-16.306-34.586-14c-22,6.582-27.461,41.796-25.333,70
		c2.5,33.125,9.5,68.167,32,80.667c15.759,8.755,38.755,13.5,49.756,29c6.638,9.353,5.682,24.731,5.682,24.731
		s8.018-3.157,14.563,0.769c6.759,4.055,12,11,17.503,5.502c7.089-7.083,3.822-15.635,3.822-15.635s-19.878-30.644-28.553-68.914
		c-5.409-20.393-9.007-42.477-10.46-65.654C128.477,118.991,120.348,92.077,105.506,77.556z"/>
	<polygon fill="none" points="266.4,131.384 255.122,131.384 224.653,147.424 229.34,158.264 252.265,145.813 252.265,215.686 
		227.656,215.686 227.656,227.551 287.787,227.551 287.787,215.686 266.4,215.686 	"/>
	<path fill="none" d="M441.08,63.555c-7.706-2.306-20.667,0.384-34.585,14c-16.418,16.062-24.623,47.292-24.623,47.292
		s0.052,2.858-0.852,10.671c-1.655,17.454-4.532,34.208-8.485,49.996c-0.003,0.013-0.005,0.025-0.008,0.039
		c-8.114,40.168-29.439,73.036-29.439,73.036s-3.267,8.552,3.822,15.635c5.503,5.498,10.744-1.447,17.503-5.502
		c6.545-3.926,14.563-0.769,14.563-0.769s-0.956-15.379,5.682-24.731c11-15.5,33.997-20.245,49.756-29
		c22.5-12.5,29.5-47.542,32-80.667C468.542,105.351,463.08,70.137,441.08,63.555z"/>
	<path fill="#79C4CC" d="M463.08,45.555c-18.848-15.302-43.931-9.392-58.334,1.333c-15.333,11.418-23.089,29.306-23.089,29.306
		l-0.11,0.405c-0.844-11.864-1.859-22.293-1.859-22.293l-247.572,0c0,0-0.979,10.153-1.808,21.808
		c-0.552-1.242-8.287-18.23-23.053-29.227C92.851,36.163,67.768,30.253,48.92,45.555C6.254,80.195,19.717,170.282,37.312,202.846
		c21.275,39.375,55.394,39.283,67.086,48.375c18.682,14.526,6.189,44,6.189,44s12.983-16.788,38.999,4
		c21.245,16.974,37.938-13.099,36.701-17.92c13.093,14.697,27.877,25.376,43.751,30.987h-0.011c0,0-39.444,137.656-57.53,137.711
		c-41.429,0.125-38.086,25.722-38.086,25.722h243c0,0,0-25.722-37.914-25.722c-18.345,0-57.702-137.711-57.702-137.711h-0.01
		c16.024-5.664,30.938-16.49,44.122-31.403c-2.607,3.055,14.511,35.909,36.504,18.336c26.017-20.788,39-4,39-4
		s-12.493-29.474,6.188-44c11.693-9.093,45.812-9,67.087-48.375C492.283,170.282,505.746,80.195,463.08,45.555z M168.913,258.589
		c0,0,3.267,8.552-3.822,15.635c-5.503,5.498-10.744-1.447-17.503-5.502c-6.545-3.926-14.563-0.769-14.563-0.769
		s0.956-15.379-5.682-24.731c-11.001-15.5-33.998-20.245-49.756-29c-22.5-12.5-29.5-47.542-32-80.667
		c-2.128-28.204,3.333-63.418,25.333-70c7.707-2.306,20.667,0.384,34.586,14c14.842,14.521,22.971,41.436,24.394,46.466
		c1.453,23.177,5.051,45.261,10.46,65.654C149.035,227.945,168.913,258.589,168.913,258.589z M287.787,227.551h-60.131v-11.865
		h24.609v-69.873l-22.925,12.451l-4.688-10.84l30.469-16.04H266.4v84.302h21.387V227.551z M466.413,133.555
		c-2.5,33.125-9.5,68.167-32,80.667c-15.759,8.755-38.756,13.5-49.756,29c-6.638,9.353-5.682,24.731-5.682,24.731
		s-8.018-3.157-14.563,0.769c-6.759,4.055-12,11-17.503,5.502c-7.089-7.083-3.822-15.635-3.822-15.635s21.325-32.867,29.439-73.036
		c0.003-0.013,0.005-0.025,0.008-0.039c3.953-15.787,6.83-32.542,8.485-49.996c0.903-7.813,0.852-10.671,0.852-10.671
		s8.205-31.23,24.623-47.292c13.918-13.616,26.879-16.306,34.585-14C463.08,70.137,468.542,105.351,466.413,133.555z"/>
</g>
</svg>
