<?xml version="1.0" encoding="utf-8"?>
<!-- Generator: Adobe Illustrator 16.0.0, SVG Export Plug-In . SVG Version: 6.00 Build 0)  -->
<!DOCTYPE svg PUBLIC "-//W3C//DTD SVG 1.1//EN" "http://www.w3.org/Graphics/SVG/1.1/DTD/svg11.dtd">
<svg version="1.1" id="Layer_1" xmlns="http://www.w3.org/2000/svg" xmlns:xlink="http://www.w3.org/1999/xlink" x="0px" y="0px"
	 width="512px" height="512px" viewBox="0 0 512 512" enable-background="new 0 0 512 512" xml:space="preserve">
<path fill="#79C4CC" d="M161.833,438.5c0,0-20.667-2-28.667-4S94.5,411.834,94.5,411.834l26,6.666c0,0-53.333-39.334-58-54
	s-16-70-16-70s15.333,25.333,20.667,32S92.5,349.834,92.5,349.834S59.833,282.833,57.167,256s0.667-103.499,0.667-103.499
	s14,26,20.667,32.667s12.667,10.667,12.667,10.667s-0.43-58.738,13-91.736s40.429-64.497,40.429-64.497s-3.096,35.898,3.812,61.404
	c5.045,18.63,13.426,34.591,13.426,34.591s9.143-39.882,17.905-59.489C190.757,51.448,261.5,5.5,261.5,5.5s0.977,17.264,2.5,32.5
	c1.5,15,6.764,22.309,6.764,22.309s5.369-4.802,10.104-14.035C283.875,40.408,286.5,28.5,286.5,28.5s8.044,21.357,11.727,38.85
	c4.705,22.353,8.361,45.748,8.361,45.748s16.091-22.638,23.691-45.679c5.19-15.734,3.365-48.816,3.365-48.816
	s30.646,47.042,34.44,59.997c6.415,21.9,0,65.997,0,65.997s30.002-23.269,37.498-35.998C416.742,89.649,429.5,59.5,429.5,59.5
	s4.582,106.095,1.582,127.094S408.583,256,408.583,256s22.499-10.99,32.998-31.198S456.5,189.5,456.5,189.5s6.08,48-5.845,84.09
	c-5.695,17.238-48.072,74.996-48.072,74.996l59.997-35.998c0,0-18,47.997-25.499,55.497s-58.497,37.498-58.497,37.498h29.999
	c0,0-31.499,22.499-44.998,25.499s-23.999,7.418-23.999,7.418S362,420,366.5,413s18.5-54.5,12-64.5s-14-1-15,0.5s-29,32.5-29,32.5
	L318,358c0,0,21.5-14.5,22.5-20.5S338,291,330,277s-15-26-27-21s-24.5,20.5-29.5,29.5s-22,37.5-22,37.5s-9.5-32.5-14-41.5
	S226,252,211.5,252s-36,24-40.5,32s-20,45-15,51.5s13.5,12.5,13.5,12.5l-8.5,18c0,0-22-29-29.5-31s-12,1-13.5,6s1,47.5,4,53.5
	s6.5,16.5,13.5,21.5S161.833,438.5,161.833,438.5z"/>
<path fill="#79C4CC" d="M165.833,441.833c0,0,3.333,31.332,6.667,36.666s6,16,10.667,18.667s47.333,11.334,62.667,10.667
	s44.667-7.334,53.333-10.667s20-22,22-32s0-18.667,0-18.667l-7.333-4.666c0,0-4,15.333-6.667,19.333s-52.627,39.333-52.627,39.333
	s-12.04,5.334-20.707-1.333s-49.333-30.001-50.667-32.667s-5.333-24.666-5.333-24.666H165.833z"/>
<path fill="#79C4CC" d="M212.875,389.5c5.75,6.875,12.75,15.625,12.75,15.625s-2.576,3.704-0.16,6.036
	C227.5,413.125,230.5,411,230.5,411s4.176,4.73,6.25,4.5c5.625-0.625,7.194-11.5,7.194-11.5s-1.557,4.416-3.944,5.75
	c-1.865,1.043-4.159-0.283-7.125-3.849c-2.261-2.718-17.621-31.112-26.653-43.026C197.462,351.32,191,350,186.5,350
	s-11.5,5.5-11.5,5.5l-6.5,11c0,0,17.405-0.007,23.375,3.25C200.125,374.25,208.282,384.009,212.875,389.5z"/>
<path fill="#79C4CC" d="M251.5,405.5c0,0,1.5,4.001,4.5,3.501s15.427-13.411,20.667-18.167c6.214-5.64,19.65-18.339,25.833-18.512
	c10-0.28,15.5,4.678,15.5,4.678v18.472c0,0-13-7.29-19-4.472s-30.729,17.597-30.729,17.597s1.896,3.404-0.771,5.404
	c-2.665,1.999-5.411-0.297-5.411-0.297s-4.957,4.132-7.549,2.797C250.333,414.334,251.5,405.5,251.5,405.5z"/>
<path fill="none" stroke="#79C4CC" stroke-width="4" stroke-miterlimit="10" d="M258.164,416.16c0,0,0.67,5.065,3.003,5.203
	s10-1.674,15-2.602s15.334,0.271,19-1.995s8.332-9.266,8.666-13.266s0-13.069,0-13.069"/>
<path fill="#79C4CC" d="M244.891,435.167c0,0-0.169,5.333-0.947,8s-2.111,5-1.444,6s0.795,5.474,0.795,5.474
	s-7.462-5.306-7.462-7.474c0-1.665,3.529-0.665,5.667-3.998S244.891,435.167,244.891,435.167z"/>
<path fill="none" stroke="#79C4CC" stroke-width="4" stroke-miterlimit="10" d="M190.858,369.274c0,0-3.174,11.611-3.174,20.21
	c0,8.068,8.2,22.935,9.815,24.016c3,2.008,13.444,1.924,17.777,2.99s10.814,3.4,14.057,3.51c3,0.102,5.039-5.448,5.039-5.448"/>
<path fill="#79C4CC" d="M263,456.839c-5.237-1.75-13.165,0.834-19.056,0.334S227,455.5,224.5,459c0,0-1.333,10.703,2.167,15.852
	s29.543,4.608,33.876,1.216c1.908-1.495,1.131-6.004,2.29-10.229C263.75,462.5,266.167,457.897,263,456.839z M258.083,473.926
	c-2.414,2.449-11,2.084-13,2.084s-12.583-0.334-14.833-2.334s-3.321-4.48-2.334-5.98c0,0,2.834,0.23,3.334,1.73
	s0.833,2.519,2.833,2.917s17.039,1.535,19.789,0.184c2.75-1.352,3.456-4.492,4.292-4.992s1.669,1.392,1.669,1.392
	S260.497,471.477,258.083,473.926z M257.125,463.125c-1.577,0.21-26.862,0.368-28.737-0.382s-1.287-1.434-1.287-1.434
	s4.392-1.895,7.272-1.81c2.611,0.077,5.989,0.94,9.977,1.104c3.63,0.148,7.941-0.84,11.65-1.229c3.709-0.389,4.959,1.23,4.959,1.23
	S260.875,462.625,257.125,463.125z"/>
</svg>
