<?xml version="1.0" encoding="utf-8"?>
<!-- Generator: Adobe Illustrator 13.0.0, SVG Export Plug-In . SVG Version: 6.00 Build 14948)  -->
<!DOCTYPE svg PUBLIC "-//W3C//DTD SVG 1.1//EN" "http://www.w3.org/Graphics/SVG/1.1/DTD/svg11.dtd">
<svg version="1.1" id="Layer_1" xmlns="http://www.w3.org/2000/svg" xmlns:xlink="http://www.w3.org/1999/xlink" x="0px" y="0px"
	 width="512px" height="512px" viewBox="0 0 512 512" enable-background="new 0 0 512 512" xml:space="preserve">
<polygon fill="#79C4CC" points="412.945,287.691 342.945,450.692 317.945,450.692 387.945,287.691 88.15,287.691 158.15,450.692 
	133.15,450.692 63.15,287.691 63.15,262.691 412.945,262.691 "/>
<path fill="#79C4CC" d="M130.547,244.192c0,0,81.406-24.866,33.997-71.668c-34.854-34.408-49.785-38.971-22.9-67.234
	c26-27.333,44.998-25.499,44.998-25.499s-47.428,30.401-21.595,57.901c40.773,43.404,61,52.5,32,75.5
	S130.547,244.192,130.547,244.192z"/>
<path fill="#79C4CC" d="M276.548,246.192c0,0,59.618-30.361,8-69c-53.518-40.061-56-58,6-70s80.585,1.098,40.087-78.398
	c-10.587-20.782,96.81,94.087,12.913,101.398c-64.716,5.639-68,5-59,15s76,81,34,91S276.548,246.192,276.548,246.192z"/>
<polygon fill="#79C4CC" points="372.945,485.692 103.15,485.692 53.15,460.692 422.945,460.692 "/>
<path fill="#79C4CC" d="M395.548,353.691l11-23.5c0,0,30.241-20.141,46.5,8c13,22.5,4.5,48.5-29,69.501c-18.804,11.786-64,29-64,29
	l14-28.5c0,0,39.5-16.667,49.5-28.001c10-11.332,11.5-23,4.5-29.5C416.303,339.786,395.548,353.691,395.548,353.691z"/>
</svg>
