<?xml version="1.0" encoding="utf-8"?>
<!-- Generator: Adobe Illustrator 16.0.0, SVG Export Plug-In . SVG Version: 6.00 Build 0)  -->
<!DOCTYPE svg PUBLIC "-//W3C//DTD SVG 1.1//EN" "http://www.w3.org/Graphics/SVG/1.1/DTD/svg11.dtd">
<svg version="1.1" id="Layer_1" xmlns="http://www.w3.org/2000/svg" xmlns:xlink="http://www.w3.org/1999/xlink" x="0px" y="0px"
	 width="512px" height="512px" viewBox="0 0 512 512" enable-background="new 0 0 512 512" xml:space="preserve">
<path fill="#8E6747" d="M255.5,300.5c-26.947,0-52.047-7.898-73.119-21.502L140.5,512L256,451.375L371.5,512l-41.946-233.617
	C308.29,292.359,282.848,300.5,255.5,300.5z"/>
<g>
	<path fill="#8E6747" d="M313.349,135.533c-1.124-2.051-2.466-3.82-4.027-5.31c-1.563-1.489-3.347-2.648-5.347-3.479
		c-2.004-0.83-4.248-1.245-6.738-1.245c-3.321,0-6.336,0.806-9.047,2.417c-2.709,1.611-5.017,4.017-6.92,7.214
		c-1.904,3.199-3.369,7.154-4.396,11.865c-1.024,4.713-1.538,10.169-1.538,16.37c0,1.514,0.012,3.028,0.037,4.541
		c0.023,1.514,0.109,2.979,0.256,4.395l40.503-29.956C315.399,139.854,314.471,137.584,313.349,135.533z"/>
	<path fill="#8E6747" d="M318.549,154.503l-40.503,30.103c0.731,2.54,1.659,4.883,2.783,7.031c1.122,2.149,2.478,3.992,4.065,5.53
		c1.586,1.538,3.393,2.735,5.42,3.589c2.024,0.855,4.332,1.282,6.92,1.282c3.32,0,6.336-0.806,9.047-2.417
		c2.709-1.611,5.017-4.003,6.921-7.178c1.904-3.173,3.369-7.116,4.395-11.829c1.025-4.711,1.538-10.168,1.538-16.37
		c0-1.659-0.063-3.307-0.184-4.944C318.829,157.665,318.695,156.066,318.549,154.503z"/>
	<path fill="#8E6747" d="M255.5,40.5c-69.036,0-125,55.964-125,125s55.964,125,125,125c69.035,0,125-55.964,125-125
		S324.535,40.5,255.5,40.5z M247.357,211.632h-63.062v-11.426l24.756-24.609c4.052-4.003,7.348-7.471,9.888-10.4
		c2.538-2.93,4.516-5.604,5.933-8.021c1.416-2.417,2.368-4.699,2.856-6.848c0.487-2.148,0.732-4.468,0.732-6.958
		c0-2.344-0.318-4.578-0.952-6.702c-0.635-2.124-1.611-3.992-2.93-5.603c-1.319-1.611-3.028-2.88-5.127-3.809
		c-2.1-0.927-4.614-1.392-7.544-1.392c-4.054,0-7.74,0.904-11.06,2.71c-3.321,1.807-6.372,4.151-9.155,7.031l-7.031-8.423
		c3.613-3.809,7.775-6.859,12.488-9.155c4.711-2.294,10.192-3.442,16.443-3.442c4.248,0,8.117,0.635,11.609,1.904
		c3.49,1.271,6.506,3.102,9.045,5.493c2.538,2.393,4.504,5.323,5.896,8.789c1.392,3.468,2.087,7.374,2.087,11.719
		c0,3.662-0.489,7.057-1.465,10.181c-0.978,3.125-2.454,6.238-4.431,9.338c-1.978,3.102-4.468,6.313-7.471,9.631
		c-3.003,3.321-6.555,6.958-10.657,10.913l-17.358,16.919h46.509L247.357,211.632L247.357,211.632z M329.828,183.836
		c-1.465,6.031-3.688,11.206-6.665,15.527c-2.979,4.321-6.678,7.667-11.097,10.034c-4.421,2.368-9.607,3.552-15.563,3.552
		c-5.127,0-9.79-0.965-13.989-2.893c-4.199-1.928-7.789-4.895-10.767-8.899c-2.979-4.003-5.272-9.106-6.886-15.308
		c-1.61-6.2-2.416-13.55-2.416-22.046c0-7.324,0.744-14.013,2.234-20.068c1.487-6.054,3.709-11.243,6.663-15.564
		c2.954-4.321,6.652-7.665,11.097-10.034c4.442-2.368,9.619-3.552,15.527-3.552c5.127,0,9.789,0.965,13.989,2.893
		c4.199,1.93,7.787,4.907,10.767,8.936c2.979,4.028,5.273,9.144,6.886,15.344c1.61,6.202,2.417,13.55,2.417,22.046
		C332.025,171.129,331.293,177.807,329.828,183.836z"/>
</g>
</svg>
