<?xml version="1.0" encoding="utf-8"?>
<!-- Generator: Adobe Illustrator 16.0.0, SVG Export Plug-In . SVG Version: 6.00 Build 0)  -->
<!DOCTYPE svg PUBLIC "-//W3C//DTD SVG 1.1//EN" "http://www.w3.org/Graphics/SVG/1.1/DTD/svg11.dtd">
<svg version="1.1" id="Layer_1" xmlns="http://www.w3.org/2000/svg" xmlns:xlink="http://www.w3.org/1999/xlink" x="0px" y="0px"
	 width="512px" height="512px" viewBox="0 0 512 512" enable-background="new 0 0 512 512" xml:space="preserve">
<g>
	<circle fill="none" cx="255.5" cy="165.5" r="135"/>
	<path fill="#8E6747" d="M397.763,177.268L421,155.201l-24.813-13.839l17.048-26.869l-27.601-7.662l9.954-29.836l-28.872-0.905
		l2.456-31.026l-28.796,5.713l-4.729-30.072l-26.181,12.653L297.114,5.449l-21.167,18.792L256,0.255l-16.723,23.427L214.885,5.449
		l-9.736,26.432l-28.794-11.177l-3.839,28.588l-29.689-4.229l2.806,29.196l-29.222,2.735l9.459,28.438l-27.104,9.06l16.274,24.775
		L91,155.201l21.909,19.511L93.602,196.56l25.905,12.951l-13.099,26.462l28.282,5.906l-6.076,29.084l29.574-0.801l0.636,29.169
		l20.902-5.66L140.5,512L256,451.375L371.5,512l-39.195-218.436l20.87,5.769l0.766-30.354l29.443,1.985l-7.896-28.02l30.104-6.97
		l-14.632-25.264l27.438-14.149L397.763,177.268z M255.5,300.5c-74.558,0-135-60.442-135-135s60.442-135,135-135
		c74.559,0,135,60.442,135,135S330.059,300.5,255.5,300.5z"/>
</g>
<path fill="#8E6747" d="M255.5,40.5c-69.036,0-125,55.964-125,125s55.964,125,125,125c69.035,0,125-55.964,125-125
	S324.535,40.5,255.5,40.5z M283.1,193.98c-2.051,3.907-4.871,7.264-8.459,10.071c-3.59,2.809-7.826,4.993-12.707,6.555
	c-4.885,1.562-10.158,2.344-15.821,2.344c-1.417,0-2.942-0.037-4.578-0.11c-1.637-0.073-3.259-0.172-4.871-0.293
	c-1.611-0.123-3.186-0.256-4.724-0.403s-2.918-0.318-4.138-0.513V200.06c2.637,0.635,5.651,1.099,9.045,1.392
	c3.393,0.293,6.823,0.439,10.291,0.439c3.906,0,7.421-0.463,10.547-1.392c3.123-0.927,5.785-2.258,7.981-3.992
	c2.196-1.732,3.882-3.833,5.056-6.299c1.172-2.465,1.758-5.237,1.758-8.313c0-5.957-2.139-10.291-6.41-13
	c-4.272-2.71-10.412-4.065-18.419-4.065h-18.164v-48.926h51.563v11.133h-39.551v26.88h8.35c4.589,0,9.057,0.416,13.403,1.245
	c4.346,0.831,8.214,2.283,11.607,4.358c3.395,2.076,6.127,4.859,8.203,8.35c2.075,3.492,3.112,7.874,3.112,13.147
	C286.176,185.753,285.15,190.075,283.1,193.98z"/>
<path fill="none" stroke="#8E6747" stroke-width="4" stroke-miterlimit="10" d="M132.059,335.689c0,0-69.569-39.104-85-127.571
	c-15-86,28.581-166.643,28.581-166.643"/>
<g>
	<path fill="#8E6747" d="M106.312,34.781c14.784-11.016,19.866-27.58,19.866-27.58s-19.974-4.053-32.72,4.898
		C80.711,21.05,73.64,41.476,73.64,41.476S93.345,44.442,106.312,34.781z"/>
	<path fill="#8E6747" d="M56.644,74.771c0,0,11.438-16.316,8.569-32.23C61.942,24.397,49.38,12.464,49.38,12.464
		s-12.531,16.074-10.2,31.474C41.51,59.338,56.644,74.771,56.644,74.771z"/>
	<path fill="#8E6747" d="M44.278,118.305c0,0,5.868-19.043-1.756-33.303C33.83,68.743,18.208,61.251,18.208,61.251
		S11.226,80.4,18.18,94.336C25.133,108.273,44.278,118.305,44.278,118.305z"/>
	<path fill="#8E6747" d="M37.45,173.992c0,0,4.913-19.312-3.411-33.174c-9.49-15.807-25.466-22.513-25.466-22.513
		s-6.02,19.473,1.618,33.046C17.829,164.924,37.45,173.992,37.45,173.992z"/>
	<path fill="#8E6747" d="M44.565,225.856c0,0-0.958-19.903-12.978-30.72C17.884,182.802,0.645,181.07,0.645,181.07
		s-0.053,20.381,11.226,31.123C23.149,222.933,44.565,225.856,44.565,225.856z"/>
	<path fill="#8E6747" d="M63.223,270.557c0,0-5.437-19.171-19.592-26.988c-16.139-8.914-33.323-6.701-33.323-6.701
		s4.559,19.864,17.976,27.774C41.7,272.555,63.223,270.557,63.223,270.557z"/>
	<path fill="#8E6747" d="M91.009,307.84c0,0-11.656-16.162-27.629-18.676c-18.213-2.867-33.608,5.081-33.608,5.081
		s11.069,17.114,26.38,19.968C71.462,317.066,91.009,307.84,91.009,307.84z"/>
	<path fill="#8E6747" d="M91.676,322.715c-18.425,0.662-32.021,11.402-32.021,11.402s14.132,14.688,29.706,14.564
		c15.574-0.121,33.001-12.908,33.001-12.908S107.835,322.134,91.676,322.715z"/>
	<path fill="#8E6747" d="M108.125,58.354c0,0-20.265-2.183-32.125,7.912C64.139,76.361,58.994,97.354,58.994,97.354
		s19.895,1.127,31.908-9.696C104.601,75.318,108.125,58.354,108.125,58.354z"/>
	<path fill="#8E6747" d="M75.636,139.825c9.289-15.926,7.478-33.158,7.478-33.158s-19.966,4.094-28.188,17.322
		c-8.222,13.228-6.728,34.791-6.728,34.791S67.491,153.793,75.636,139.825z"/>
	<path fill="#8E6747" d="M76.881,192.583c6.554-17.233,1.944-33.935,1.944-33.935s-19.026,7.31-24.969,21.706
		c-5.944,14.396-0.937,35.423-0.937,35.423S71.134,207.697,76.881,192.583z"/>
	<path fill="#8E6747" d="M76.099,270.88c0,0,13.274-14.861,12.291-31c-1.12-18.403-12.195-31.727-12.195-31.727
		s-14.331,14.493-13.822,30.06C62.88,253.778,76.099,270.88,76.099,270.88z"/>
	<path fill="#8E6747" d="M106.518,309.771c0,0,11.439-16.316,8.569-32.229c-3.271-18.146-15.833-30.077-15.833-30.077
		s-12.531,16.074-10.2,31.475C91.384,294.338,106.518,309.771,106.518,309.771z"/>
</g>
<path fill="none" stroke="#8E6747" stroke-width="4" stroke-miterlimit="10" d="M380.586,336.17c0,0,69.568-39.104,84.999-127.572
	c15.001-86-28.58-166.643-28.58-166.643"/>
<g>
	<path fill="#8E6747" d="M406.347,35.201c-14.765-11.044-19.813-27.616-19.813-27.616s19.979-4.017,32.711,4.957
		c12.729,8.975,19.762,29.413,19.762,29.413S419.297,44.886,406.347,35.201z"/>
	<path fill="#8E6747" d="M456.001,75.251c0,0-11.438-16.316-8.568-32.23c3.271-18.144,15.833-30.077,15.833-30.077
		s12.531,16.074,10.2,31.474S456.001,75.251,456.001,75.251z"/>
	<path fill="#8E6747" d="M468.366,118.785c0,0-5.868-19.043,1.757-33.303c8.691-16.259,24.313-23.751,24.313-23.751
		s6.981,19.149,0.028,33.085S468.366,118.785,468.366,118.785z"/>
	<path fill="#8E6747" d="M475.194,174.472c0,0-4.912-19.312,3.408-33.174c9.491-15.807,25.47-22.513,25.47-22.513
		s6.02,19.473-1.618,33.046C494.815,165.404,475.194,174.472,475.194,174.472z"/>
	<path fill="#8E6747" d="M468.079,226.336c0,0,0.959-19.903,12.978-30.721C494.762,183.281,512,181.549,512,181.549
		s0.054,20.382-11.226,31.123C489.496,223.412,468.079,226.336,468.079,226.336z"/>
	<path fill="#8E6747" d="M449.422,271.036c0,0,5.438-19.171,19.592-26.987c16.142-8.914,33.323-6.701,33.323-6.701
		s-4.56,19.865-17.976,27.775C470.945,273.034,449.422,271.036,449.422,271.036z"/>
	<path fill="#8E6747" d="M421.636,308.318c0,0,11.656-16.161,27.63-18.676c18.213-2.867,33.608,5.082,33.608,5.082
		s-11.069,17.112-26.38,19.967C441.183,317.547,421.636,308.318,421.636,308.318z"/>
	<path fill="#8E6747" d="M420.969,323.193c18.426,0.662,32.021,11.402,32.021,11.402s-14.133,14.688-29.707,14.564
		c-15.575-0.121-33-12.909-33-12.909S404.811,322.613,420.969,323.193z"/>
	<path fill="#8E6747" d="M404.52,58.834c0,0,20.267-2.183,32.127,7.912c11.859,10.094,17.007,31.088,17.007,31.088
		s-19.896,1.127-31.908-9.696C408.044,75.798,404.52,58.834,404.52,58.834z"/>
	<path fill="#8E6747" d="M437.009,140.304c-9.288-15.926-7.478-33.158-7.478-33.158s19.965,4.094,28.188,17.322
		c8.225,13.228,6.729,34.791,6.729,34.791S445.153,154.272,437.009,140.304z"/>
	<path fill="#8E6747" d="M435.764,193.063c-6.554-17.232-1.942-33.934-1.942-33.934s19.023,7.31,24.969,21.706
		s0.937,35.424,0.937,35.424S441.512,208.177,435.764,193.063z"/>
	<path fill="#8E6747" d="M436.546,271.359c0,0-13.271-14.861-12.29-31c1.119-18.404,12.195-31.728,12.195-31.728
		s14.33,14.493,13.821,30.06C449.765,254.258,436.546,271.359,436.546,271.359z"/>
	<path fill="#8E6747" d="M406.127,310.251c0,0-11.438-16.315-8.569-32.229c3.272-18.145,15.835-30.077,15.835-30.077
		s12.531,16.075,10.199,31.474C421.261,294.816,406.127,310.251,406.127,310.251z"/>
</g>
</svg>
