<?xml version="1.0" encoding="utf-8"?>
<!-- Generator: Adobe Illustrator 16.0.0, SVG Export Plug-In . SVG Version: 6.00 Build 0)  -->
<!DOCTYPE svg PUBLIC "-//W3C//DTD SVG 1.1//EN" "http://www.w3.org/Graphics/SVG/1.1/DTD/svg11.dtd">
<svg version="1.1" id="Layer_1" xmlns="http://www.w3.org/2000/svg" xmlns:xlink="http://www.w3.org/1999/xlink" x="0px" y="0px"
	 width="512px" height="512px" viewBox="0 0 512 512" enable-background="new 0 0 512 512" xml:space="preserve">
<polygon fill="#79C4CC" points="219.5,301.65 181.552,283.51 140.5,512 256,451.375 371.5,512 330.498,283.498 281,301.65 "/>
<path fill="#79C4CC" d="M397.763,177.268L421,155.201l-24.813-13.839l17.048-26.869l-27.6-7.662l9.954-29.836l-28.872-0.905
	l2.456-31.026l-28.796,5.713l-4.73-30.072l-26.18,12.653L297.114,5.449l-21.167,18.792L256,0.255l-16.723,23.427L214.885,5.449
	l-9.736,26.432l-28.794-11.177l-3.839,28.588l-29.689-4.229l2.806,29.196l-29.222,2.735l9.459,28.438l-27.104,9.06l16.274,24.775
	L91,155.201l21.909,19.511L93.602,196.56l25.905,12.951l-13.099,26.462l28.282,5.906l-6.076,29.084l29.574-0.801l0.636,29.169
	l29.093-7.878l7.222,27.843l25.366-15.212l14.774,25.52l20.149-21.209l21.292,21.209l14.157-25.646l25.981,15.34l6.678-28.158
	l29.639,8.193l0.765-30.354l29.444,1.985l-7.897-28.02l30.104-6.97l-14.632-25.264l27.438-14.149L397.763,177.268z M255.5,300.5
	c-74.558,0-135-60.442-135-135s60.442-135,135-135c74.559,0,135,60.442,135,135S330.059,300.5,255.5,300.5z"/>
<g>
	<path fill="#79C4CC" d="M313.349,135.533c-1.124-2.051-2.466-3.82-4.027-5.31c-1.563-1.489-3.347-2.648-5.347-3.479
		c-2.004-0.83-4.248-1.245-6.738-1.245c-3.321,0-6.336,0.806-9.047,2.417c-2.709,1.611-5.017,4.017-6.92,7.214
		c-1.904,3.199-3.369,7.154-4.396,11.865c-1.024,4.713-1.538,10.169-1.538,16.37c0,1.514,0.012,3.028,0.037,4.541
		c0.023,1.514,0.109,2.979,0.256,4.395l40.503-29.956C315.399,139.854,314.471,137.584,313.349,135.533z"/>
	<path fill="#79C4CC" d="M318.549,154.503l-40.503,30.103c0.731,2.54,1.659,4.883,2.783,7.031c1.122,2.149,2.478,3.992,4.065,5.53
		c1.586,1.538,3.393,2.735,5.42,3.589c2.024,0.855,4.332,1.282,6.92,1.282c3.32,0,6.336-0.806,9.047-2.417
		c2.709-1.611,5.017-4.003,6.921-7.178c1.904-3.173,3.369-7.116,4.395-11.829c1.025-4.711,1.538-10.168,1.538-16.37
		c0-1.659-0.063-3.307-0.184-4.944C318.829,157.665,318.695,156.066,318.549,154.503z"/>
	<path fill="#79C4CC" d="M255.5,40.5c-69.036,0-125,55.964-125,125s55.964,125,125,125c69.035,0,125-55.964,125-125
		S324.535,40.5,255.5,40.5z M246.552,211.632H186.42v-11.865h24.609v-69.873l-22.925,12.451l-4.688-10.84l30.469-16.04h11.279
		v84.302h21.387L246.552,211.632L246.552,211.632z M329.828,183.836c-1.465,6.031-3.688,11.206-6.665,15.527
		c-2.979,4.321-6.678,7.667-11.097,10.034c-4.421,2.368-9.607,3.552-15.563,3.552c-5.127,0-9.79-0.965-13.989-2.893
		c-4.199-1.928-7.789-4.895-10.767-8.899c-2.979-4.003-5.272-9.106-6.886-15.308c-1.61-6.2-2.416-13.55-2.416-22.046
		c0-7.324,0.744-14.013,2.234-20.068c1.487-6.054,3.709-11.243,6.663-15.564c2.954-4.321,6.652-7.665,11.097-10.034
		c4.442-2.368,9.619-3.552,15.527-3.552c5.127,0,9.789,0.965,13.989,2.893c4.199,1.93,7.787,4.907,10.767,8.936
		c2.979,4.028,5.273,9.144,6.886,15.344c1.61,6.202,2.417,13.55,2.417,22.046C332.025,171.129,331.293,177.807,329.828,183.836z"/>
</g>
</svg>
